<?xml version="1.0" encoding="UTF-8" standalone="no"?>
<svg
   version="1.0"
   width="1133.9091pt"
   height="1009.7385pt"
   viewBox="0 0 1133.9091 1009.7385"
   preserveAspectRatio="xMidYMid"
   id="svg18"
   sodipodi:docname="contentious-developers.svg"
   inkscape:version="1.2.2 (b0a8486541, 2022-12-01)"
   xmlns:inkscape="http://www.inkscape.org/namespaces/inkscape"
   xmlns:sodipodi="http://sodipodi.sourceforge.net/DTD/sodipodi-0.dtd"
   xmlns="http://www.w3.org/2000/svg"
   xmlns:svg="http://www.w3.org/2000/svg">
  <defs
     id="defs22" />
  <sodipodi:namedview
     id="namedview20"
     pagecolor="#ffffff"
     bordercolor="#000000"
     borderopacity="0.25"
     inkscape:showpageshadow="2"
     inkscape:pageopacity="0.0"
     inkscape:pagecheckerboard="0"
     inkscape:deskcolor="#d1d1d1"
     inkscape:document-units="pt"
     showgrid="false"
     inkscape:zoom="0.39370765"
     inkscape:cx="1013.4423"
     inkscape:cy="669.27833"
     inkscape:window-width="1920"
     inkscape:window-height="1023"
     inkscape:window-x="0"
     inkscape:window-y="33"
     inkscape:window-maximized="1"
     inkscape:current-layer="g16" />
  <metadata
     id="metadata2">
Created by potrace 1.15, written by Peter Selinger 2001-2017
</metadata>
  <g
     transform="matrix(0.1,0,0,-0.1,-0.49752066,1009.6581)"
     fill="#000000"
     stroke="none"
     id="g16">
    <path
       id="path6"
       d="m 7935.2577,10095.845 c -35.4003,0.932 -71.1826,-0.258 -107.1826,-3.633 -43.9999,-4 -116.0049,-18.999 -160.0049,-33.999 -258.9997,-85.9999 -446.0049,-273.9899 -535.0049,-534.9896 -27.9999,-82.9999 -32.9873,-111.0109 -36.9873,-226.0108 -4.1889,-126.5067 7.0211,-211.4996 39.1407,-304.3505 a 224.41005,137.48878 16.79388 0 0 78.8671,36.2402 224.41005,137.48878 16.79388 0 0 254.5606,-66.7822 224.41005,137.48878 16.79388 0 0 -175.1074,-196.4649 224.41005,137.48878 16.79388 0 0 -35.7129,-7.1045 c 247.99,-332.8982 716.5352,-438.8664 1093.2422,-213.5302 81.9999,48.9999 206.9979,169.9922 262.9979,256.9921 126,190.9998 168.009,436.0003 114.009,660 -22,90 -102.001,254.0011 -161.001,326.001 -154.8749,190.7495 -384.014,301.1094 -631.8165,307.6314 z" />
    <path
       id="path8"
       d="m 1975.0049,10095.996 c -94.9999,2 -160.002,-1.001 -202.002,-11.001 -251.9997,-58 -457.0079,-223.9904 -568.0078,-459.9901 -63.9999,-134.9999 -78.999,-206.0099 -78.999,-365.0098 1,-116.9999 4.0078,-147.0001 28.0078,-225 82.9999,-275.9997 275.9915,-476.001 545.9912,-566.001 177.9998,-58.9999 391.0119,-50.9872 567.0117,23.0127 143.758,59.6802 262.8179,155.8735 350.127,274.043 a 137.48878,224.41005 72.444415 0 0 -61.8311,13.1543 137.48878,224.41005 72.444415 0 0 -172.4853,198.7647 137.48878,224.41005 72.444415 0 0 255.4248,63.3984 137.48878,224.41005 72.444415 0 0 95.918,-47.417 c 51.4481,149.9607 63.1601,314.7998 21.8408,478.0518 -41,160.9998 -116.0041,288.004 -239.0039,404.0039 -91.9999,88.9999 -184.0021,142.9951 -307.002,184.9951 -85.9999,29 -107.9903,31.995 -234.9902,34.995 z" />
    <path
       id="path10"
       d="m 6058.6299,6624.0771 -346.8923,578.9891 -439.6083,-95.5551 c -268.5685,-58.0676 -551.1996,-118.8135 -627.5795,-135.875 -76.769,-16.1403 -182.3037,-33.5734 -235.5104,-38.6767 -151.0831,-14.9609 -222.2203,-34.1556 -276.1598,-78.6475 -91.2571,-74.3648 -138.0955,-189.6675 -124.5304,-306.6032 11.5571,-99.3299 57.3589,-153.8029 170.4318,-200.4878 88.5667,-37.4956 122.5821,-38.3215 287.2373,-14.3718 275.9609,40.5646 1274.5129,182.2219 1324.1777,188.0003 93.2005,10.8439 185.5592,46.8374 268.4339,103.2277 z" />
    <path
       id="path2441"
       d="m 10940.472,9877.8771 c -13.773,-0.272 -27.584,-1.475 -41.396,-3.662 -100,-16.0005 -114.003,-28.9902 -483.003,-448.9898 -192,-217.9997 -460.0011,-523.007 -596.0008,-677.0068 l -247.002,-280.0049 -397.002,-116.9971 -397.002,-116.997 -878.994,-0.9961 H 7021.078 l -65.0097,-36.0059 c -175.9999,-95.9999 -507.9917,-376.0004 -980.9912,-825 -88.9732,-69.6098 -165.7838,-131.441 -261.4328,-170.6512 l 112.8683,-673.6994 c 58.838,11.7952 117.384,31.6446 173.5547,59.3555 95.9999,48 73.0075,27.9899 707.0068,613.9893 97.9999,89.9999 179.9922,163.0009 181.9922,161.0009 2,-2 -3.001,-104.9991 -11.001,-228.999 -9.9999,-170.9998 -12.9892,-549.9991 -13.9892,-1582.998 0,-1227.9988 -2.0098,-1389.9906 -20.0098,-1704.9903 -11,-190.9998 -45,-792.0073 -75,-1337.0068 -30,-543.9995 -68.9902,-1230.9974 -84.9902,-1526.99713 -29,-499.99944 -30,-541.0088 -15,-609.00873 35.9999,-173.99983 136.9962,-290.995179 300.9961,-349.995119 77.9999,-27.9999698 234.004,-31.0058298 314.0039,-6.00586 176.9998,54.99995 303,202.002139 330,382.001959 6,38.99996 28.9912,399.01016 50.9912,800.00978 22,401.9996 48.0039,884.9904 59.0039,1074.9902 11,189.9998 32.9951,588.0003 49.9951,885 52,929.9991 60.0059,1057.0108 66.0059,1066.0108 9,13.9999 153.9941,10.997 158.9941,-3.003 2,-7 25.0098,-384.0082 50.0098,-838.0078 25,-453.9995 53.9951,-977.9904 64.9951,-1164.9902 34,-598.9994 58.9951,-1041.0053 79.9951,-1420.0049 11,-202.9998 25,-394.99515 30,-424.99512 30,-162.99983 159.0002,-304.011769 329.9999,-357.011719 80,-24.9999698 236.004,-21.9941098 314.004,6.00586 171,60.99994 280.002,193.001159 307.002,371.000979 12,80.99992 3.992,242.00725 -133.008,2605.0049 l -61.992,1069.9951 -3.003,1504.9951 -3.003,1505.0098 43.008,108.999 41.997,108.0029 289.995,146.9971 c 364,184.9998 526.002,278.9991 652.0018,378.999 28,23 150,157.0041 270,299.0039 120,141.9999 410,483.9866 645,760.9864 l 427.998,503.0127 v 56.997 c -0.937,235.3123 -196.992,440.7347 -403.594,436.6557 z"
       sodipodi:nodetypes="sccccccccccccccsccccccccccscccsccccccccccccccscccs" />
    <path
       d="M 850,8221 C 479,8141 187,7881 62,7520 2,7348 5,7419 5,5890 V 4485 l 23,-56 c 32,-80 90,-142 170,-181 62,-31 74,-33 167,-33 89,0 106,3 157,28 107,53 175,143 197,262 8,40 11,433 11,1247 v 1189 l 83,-3 82,-3 5,-3285 5,-3285 24,-60 c 74,-184 217,-288 416,-302 144,-9 272,35 373,130 62,60 96,112 126,200 l 21,62 3,1917 2,1918 h 80 80 V 2348 c 0,-1251 4,-1905 11,-1948 38,-244 260,-414 514,-396 252,17 416,176 446,431 5,47 9,1394 9,3293 v 3212 h 80 80 V 5752 c 0,-813 3,-1207 11,-1247 22,-119 80,-201 181,-256 61,-33 67,-34 173,-34 101,0 114,2 163,28 70,37 128,97 161,166 l 26,56 v 1430 1430 l -27,98 c -107,388 -395,683 -767,785 l -96,27 -1030,2 c -966,2 -1035,1 -1115,-16 z"
       id="path14" />
    <path
       style="font-variation-settings:'wght' 700;fill:none;stroke:#000000;stroke-width:89.5972;stroke-linecap:round;stroke-dasharray:none;stroke-opacity:1"
       d="M 6822.0179,8561.2952 6238.8527,8250.9786"
       id="path533" />
    <path
       style="font-variation-settings:'wght' 700;fill:none;stroke:#000000;stroke-width:89.5972;stroke-linecap:round;stroke-dasharray:none;stroke-opacity:1"
       d="m 6767.3223,8786.3764 -672.8906,-26.4012"
       id="path533-3" />
    <path
       style="font-variation-settings:'wght' 700;fill:none;stroke:#000000;stroke-width:89.5972;stroke-linecap:round;stroke-dasharray:none;stroke-opacity:1"
       d="m 6749.3216,9022.9339 -610.6669,261.6215"
       id="path533-6" />
    <path
       style="font-variation-settings:'wght' 700;fill:none;stroke:#000000;stroke-width:91.0612;stroke-linecap:round;stroke-dasharray:none;stroke-opacity:1"
       d="m 3001.3729,9092.0412 650.4905,240.0815"
       id="path533-7" />
    <path
       style="font-variation-settings:'wght' 700;fill:none;stroke:#000000;stroke-width:75.54;stroke-linecap:round;stroke-dasharray:none;stroke-opacity:1"
       d="m 2632.9288,9872.9715 -97.9111,52.6047"
       id="path533-7-1"
       sodipodi:nodetypes="cc" />
    <path
       style="font-variation-settings:'wght' 700;fill:none;stroke:#000000;stroke-width:75.54;stroke-linecap:round;stroke-dasharray:none;stroke-opacity:1"
       d="m 2725.025,9874.6365 76.1879,61.6222"
       id="path533-7-1-5"
       sodipodi:nodetypes="cc" />
    <path
       style="font-variation-settings:'wght' 700;fill:none;stroke:#000000;stroke-width:75.54;stroke-linecap:round;stroke-dasharray:none;stroke-opacity:1"
       d="m 7174.6772,9802.4969 97.9111,52.6047"
       id="path533-7-1-4"
       sodipodi:nodetypes="cc" />
    <path
       style="font-variation-settings:'wght' 700;fill:none;stroke:#000000;stroke-width:75.54;stroke-linecap:round;stroke-dasharray:none;stroke-opacity:1"
       d="m 7082.581,9804.1619 -76.1879,61.6222"
       id="path533-7-1-5-7"
       sodipodi:nodetypes="cc" />
    <path
       style="font-variation-settings:'wght' 700;fill:none;stroke:#000000;stroke-width:91.0612;stroke-linecap:round;stroke-dasharray:none;stroke-opacity:1"
       d="m 3027.8799,8866.4387 705.5553,-46.7252"
       id="path533-3-5" />
    <path
       style="font-variation-settings:'wght' 700;fill:none;stroke:#000000;stroke-width:91.0612;stroke-linecap:round;stroke-dasharray:none;stroke-opacity:1"
       d="m 3014.5485,8633.5871 601.5463,-321.1707"
       id="path533-6-3" />
  </g>
</svg>
